<svg xmlns="http://www.w3.org/2000/svg" fill="none" viewBox="0 0 1024 1024" height="1024" width="1024">
<path fill="url(#paint0_linear_2_554)" d="M0 372.364C0 166.713 166.713 0 372.364 0H651.636C857.287 0 1024 166.713 1024 372.364V651.636C1024 857.287 857.287 1024 651.636 1024H372.364C166.713 1024 0 857.287 0 651.636V372.364Z"></path>
<path fill-opacity="0.75" fill="white" d="M796.454 422.887C796.454 403.607 780.825 387.978 761.545 387.978H461.769C442.49 387.978 426.86 403.607 426.86 422.887V663.273C426.86 682.552 442.49 698.182 461.769 698.182H572.192C579.249 698.182 586.213 699.786 592.559 702.874L678.196 744.547C690.563 750.565 704.961 741.559 704.961 727.806V721.455C704.961 708.601 715.381 698.182 728.234 698.182H761.545C780.825 698.182 796.454 682.552 796.454 663.273V422.887Z"></path>
<path fill="white" d="M209.454 325.818C209.454 300.112 230.293 279.273 256 279.273H641.207C666.913 279.273 687.752 300.112 687.752 325.818V580.581C687.752 606.287 666.913 627.126 641.207 627.126H441.402C431.934 627.126 422.692 630.013 414.908 635.402L322.067 699.677C306.632 710.363 285.547 699.315 285.547 680.542V650.399C285.547 637.546 275.127 627.126 262.274 627.126H256C230.293 627.126 209.454 606.287 209.454 580.581V325.818Z"></path>
<path fill="#4691FB" d="M327.563 535.296L325.817 533.648V530.352L380.789 375.693L382.482 374.045H423.698L425.417 375.693L483.775 528.705V532L482.082 533.648L480.362 535.296H449.451L446.012 532L432.282 495.785H375.617L361.887 533.648L360.168 535.296H327.563ZM421.979 464.513H382.483L391.08 439.846L401.371 410.222L403.104 415.153L408.249 428.323L421.979 464.513Z" clip-rule="evenodd" fill-rule="evenodd"></path>
<path fill="#4691FB" d="M535.271 530.306L536.991 533.589L538.736 535.212H569.635L571.354 533.577V531.929L573.061 530.281V378.943L571.341 375.647L567.929 372.364H540.443L538.736 374.012H536.991V375.634L535.271 377.295V530.306Z"></path>
<defs>
<linearGradient gradientUnits="userSpaceOnUse" y2="1024" x2="737.28" y1="61.44" x1="163.84" id="paint0_linear_2_554">
<stop stop-color="#76AEFF"></stop>
<stop stop-color="#2F83F8" offset="1"></stop>
</linearGradient>
</defs>
</svg>
