<?xml version="1.0" standalone="no"?><!DOCTYPE svg PUBLIC "-//W3C//DTD SVG 1.1//EN" "http://www.w3.org/Graphics/SVG/1.1/DTD/svg11.dtd"><svg t="1764311568126" class="icon" viewBox="0 0 1024 1024" version="1.1" xmlns="http://www.w3.org/2000/svg" p-id="7463" width="256" height="256" xmlns:xlink="http://www.w3.org/1999/xlink"><path d="M788.48 971.093333c-13.653333 0-25.6-11.946667-25.6-25.6V646.826667c0-80.213333-64.853333-145.066667-145.066667-145.066667h-341.333333c-13.653333 0-25.6-11.946667-25.6-25.6s11.946667-25.6 25.6-25.6h341.333333c107.52 0 196.266667 88.746667 196.266667 196.266667v298.666666c0 13.653333-11.946667 25.6-25.6 25.6z" fill="#ffffff" p-id="7464"></path><path d="M278.186667 197.973333m-105.813334 0a105.813333 105.813333 0 1 0 211.626667 0 105.813333 105.813333 0 1 0-211.626667 0Z" fill="#ffffff" p-id="7465"></path><path d="M278.186667 331.093333c-73.386667 0-131.413333-59.733333-131.413334-131.413333S206.506667 68.266667 278.186667 68.266667 409.6 124.586667 409.6 197.973333s-59.733333 133.12-131.413333 133.12z m0-213.333333c-44.373333 0-80.213333 35.84-80.213334 80.213333s35.84 80.213333 80.213334 80.213334 80.213333-35.84 80.213333-80.213334-35.84-80.213333-80.213333-80.213333z" fill="#ffffff" p-id="7466"></path><path d="M278.186667 948.906667c-13.653333 0-25.6-11.946667-25.6-25.6V305.493333c0-13.653333 11.946667-25.6 25.6-25.6s25.6 11.946667 25.6 25.6v617.813334c0 15.36-11.946667 25.6-25.6 25.6z" fill="#ffffff" p-id="7467"></path><path d="M278.186667 971.093333c-6.826667 0-13.653333-1.706667-18.773334-6.826666L153.6 856.746667c-10.24-10.24-10.24-25.6 0-35.84s25.6-10.24 35.84 0l88.746667 88.746666 88.746666-88.746666c10.24-10.24 25.6-10.24 35.84 0s10.24 25.6 0 35.84l-105.813333 105.813333c-6.826667 5.12-13.653333 8.533333-18.773333 8.533333z" fill="#ffffff" p-id="7468"></path><path d="M788.48 971.093333c-6.826667 0-13.653333-1.706667-18.773333-6.826666l-105.813334-105.813334c-10.24-10.24-10.24-25.6 0-35.84s25.6-10.24 35.84 0l88.746667 88.746667 88.746667-88.746667c10.24-10.24 25.6-10.24 35.84 0s10.24 25.6 0 35.84l-105.813334 105.813334c-5.12 3.413333-11.946667 6.826667-18.773333 6.826666z" fill="#ffffff" p-id="7469"></path></svg>